<svg xmlns="http://www.w3.org/2000/svg" xmlns:xlink="http://www.w3.org/1999/xlink" width="450" height="37" viewBox="0 0 450 37">
    <defs>
        <path id="mo7ofmec0a" d="M0.096 0.016L41.22 0.016 41.22 34.461 0.096 34.461z"/>
        <path id="9lpwd6hmoc" d="M0.105 0.016L59.506 0.016 59.506 34.461 0.105 34.461z"/>
        <path id="e5qvvub86e" d="M0.061 0.016L54.893 0.016 54.893 34.461 0.061 34.461z"/>
    </defs>
    <g fill="none" fill-rule="evenodd">
        <path fill="#181413" d="M276.709 1.567L265.799 21.909 263.914 21.909 263.914 1.567 245.318 1.567 245.318 36.331 263.914 36.331 263.914 25.129 269.515 36.331 296.488 36.331 296.488 26.011 281.518 26.034 296.488 1.567z"/>
        <g>
            <path fill="#181413" d="M19.137 26.658h13.9V22.39h-13.9v4.27zm0-10.674h13.816v-4.197H19.137v4.197zm35.695 11.088c0 7.104-4.14 9.203-18.277 9.203H0V1.83h34.942c14.837 0 18.707 1.776 18.707 8.611 0 5.328-3.817 7.374-14.837 7.858v.484h1.183c11.611 0 14.837 1.83 14.837 8.289zM79.58 18.999h13.924v-4.683H79.58V19zm2.474 7.32h32.253v9.956H84.58l-5.59-11.033v11.033H60.227V1.83h36.179c14.245 0 18.868 3.014 18.868 12.379 0 8.664-6.72 11.033-31.448 11.033h-1.773v1.076zM140.949 21.044h16.234v-6.082h-16.234v6.082zm-21.18-3.068C119.769 5.866 129.337 0 149.173 0c19.729 0 29.298 5.866 29.298 17.976 0 12.325-9.515 18.299-29.298 18.299-19.836 0-29.404-5.974-29.404-18.3zM203.516 21.044h16.234v-6.082h-16.234v6.082zm-21.18-3.068C182.336 5.866 191.905 0 211.741 0c19.728 0 29.297 5.866 29.297 17.976 0 12.325-9.515 18.299-29.297 18.299-19.836 0-29.405-5.974-29.405-18.3z" transform="translate(0 .056)"/>
            <g transform="translate(0 .056) translate(301.993 1.814)">
                <mask id="y1v2zxdglb" fill="#fff">
                    <use xlink:href="#mo7ofmec0a"/>
                </mask>
                <path fill="#181413" d="M0.096 0.016L19.449 0.178 19.449 20.414 38.421 20.273 41.22 20.253 41.22 34.461 0.096 34.461z" mask="url(#y1v2zxdglb)"/>
            </g>
            <g transform="translate(0 .056) translate(331.884 1.814)">
                <mask id="zn3x7r9isd" fill="#fff">
                    <use xlink:href="#9lpwd6hmoc"/>
                </mask>
                <path fill="#181413" d="M20.103 25.688L0.105 0.016 23.328 0.016 29.349 10.08 30.262 10.08 36.283 0.016 59.506 0.016 39.508 25.688 39.508 34.461 20.103 34.461z" mask="url(#zn3x7r9isd)"/>
            </g>
            <g transform="translate(0 .056) translate(394.928 1.814)">
                <mask id="1m2y0iqmff" fill="#fff">
                    <use xlink:href="#e5qvvub86e"/>
                </mask>
                <path fill="#181413" d="M0.061 0.016L22.424 0.016 34.734 11.857 36.185 11.857 36.185 0.016 54.893 0.016 54.893 34.461 32.637 34.461 20.327 23.213 18.876 23.213 18.876 34.461 0.061 34.461z" mask="url(#1m2y0iqmff)"/>
            </g>
        </g>
    </g>
</svg>
