<svg xmlns="http://www.w3.org/2000/svg" viewBox="0 0 715.3 595"><title>Asset 3graph</title><g id="Layer_2" data-name="Layer 2"><g id="Layer_1-2" data-name="Layer 1"><rect x="2.1" y="453" width="560.6" height="132.2" transform="translate(18.3 -9.5) rotate(2)"/><rect x="154.7" y="274.1" width="560.6" height="175.42"/><rect x="2.1" y="141.9" width="560.6" height="132.2" transform="translate(3.7 -4.9) rotate(1)"/><rect x="2.1" y="9.7" width="560.6" height="132.2" transform="translate(-2.5 9.9) rotate(-2)"/><path d="M218.5,316.6h12.6v15.8h12.1V316.6h12.7v41.8H243.2V343.1H231.1v15.3H218.5Z" fill="#fff"/><path d="M289.4,315.9c13.4,0,22.4,9.2,22.4,21.4s-9,21.8-22.4,21.8-22.5-9.4-22.5-21.8S275.9,315.9,289.4,315.9Zm0,32.1c5.5,0,9.4-4.4,9.4-10.7s-3.9-10.2-9.4-10.2-9.5,4.1-9.5,10.2S283.9,348,289.4,348Z" fill="#fff"/><path d="M319.6,316.6h12.5l4.1,23a53,53,0,0,1,.7,5.3h.3a36,36,0,0,1,.8-5.3l5.7-23h11.1l5.4,23a32.6,32.6,0,0,1,.9,5.3h.2a31.1,31.1,0,0,1,.7-5.3l4.7-23h12.2l-10.6,41.8H355l-4.8-20.2a41.2,41.2,0,0,1-1-5.8H349a40.2,40.2,0,0,1-.9,5.9l-4.8,20.1H329.8Z" fill="#fff"/><path d="M388.6,316.6h12.6v31.3h16.4v10.5h-29Z" fill="#fff"/><path d="M427.6,316.6h18.2c9.2,0,15.4,5,15.4,13.8a13.6,13.6,0,0,1-6.4,11.7h0a22.7,22.7,0,0,1,1.9,2.8l7.3,13.4H450.2l-6.5-13.1h-3.5v13.1H427.6Zm16.4,19c2.8,0,4.4-1.7,4.4-4.5s-1.1-4.3-4.9-4.3h-3.3v8.8Z" fill="#fff"/><path d="M493.8,315.9c13.4,0,22.4,9.2,22.4,21.4s-9,21.8-22.4,21.8-22.5-9.4-22.5-21.8S480.3,315.9,493.8,315.9Zm0,32.1c5.5,0,9.5-4.4,9.5-10.7s-4-10.2-9.5-10.2-9.5,4.1-9.5,10.2S488.3,348,493.8,348Z" fill="#fff"/><path d="M526.8,316.6h12.6V342c0,4,2.3,6,5.9,6s5.8-2,5.8-6V316.6h12.7v26.2c0,9.6-7.5,16.3-18.6,16.3s-18.4-6.7-18.4-16.3Z" fill="#fff"/><path d="M576.4,316.6h12l10.3,17.2a33.8,33.8,0,0,1,3,6.3h.2s-.4-3.7-.4-6.3V316.6h12.2v41.8H601.4l-10.3-17.9a39.6,39.6,0,0,1-3-6.3h-.3a58.6,58.6,0,0,1,.5,6.3v17.9H576.4Z" fill="#fff"/><path d="M626.8,316.6h16.9c12.9,0,21.2,7.7,21.2,20.9s-8.3,20.9-21.2,20.9H626.8Zm16.1,31.5c5.7,0,9-3.6,9-10.6s-3.5-10.6-9-10.6h-3.5v21.2Z" fill="#fff"/><path d="M229.8,381.9H219.2v-2.6h24v2.6H232.7v26.7h-2.9Z" fill="#fff"/><path d="M249.8,379.3h2.9v13.3h17V379.3h2.9v29.3h-2.9V395.2h-17v13.4h-2.9Z" fill="#fff"/><path d="M283.2,379.3h16.5v2.6H286.1v10.7h11.1v2.5H286.1V406h14.4v2.6H283.2Z" fill="#fff"/><path d="M323.6,399.3H311.8l-3.3,9.3h-3.1l10.8-29.3h3.1L330,408.6h-3Zm-5.9-17s-.6,2.5-1.1,3.8l-4,10.7h10.1l-3.8-10.7c-.5-1.3-1.1-3.8-1.1-3.8Z" fill="#fff"/><path d="M343.5,381.9H333v-2.6h23.9v2.6H346.4v26.7h-2.9Z" fill="#fff"/><path d="M363.6,379.3h8.7a13.1,13.1,0,0,1,5.5.8c2.7,1.2,4.4,4,4.4,7.5a8,8,0,0,1-5.6,8h0l.8,1.2,6.4,11.8h-3.3l-6.7-12.3h-7.4v12.3h-2.8Zm9.8,14.4c3.6,0,5.8-2.3,5.8-6s-.9-4.2-2.6-5.1-2-.7-4.2-.7h-6v11.8Z" fill="#fff"/><path d="M391.9,379.3h16.5v2.6H394.8v10.7h11.1v2.5H394.8V406h14.4v2.6H391.9Z" fill="#fff"/><path d="M443.9,378.8c7,0,10.6,3.8,10.6,3.8l-1.6,2.1a13.8,13.8,0,0,0-8.9-3.2c-6.9,0-11.8,5.3-11.8,12.2s4.9,12.8,11.9,12.8a13.6,13.6,0,0,0,9.5-4l1.6,2.1a15.7,15.7,0,0,1-11.2,4.5c-8.7,0-14.8-6.8-14.8-15.3S435.5,378.8,443.9,378.8Z" fill="#fff"/><path d="M476.5,378.8a14.9,14.9,0,0,1,15,15,15,15,0,1,1-29.9,0A14.8,14.8,0,0,1,476.5,378.8Zm0,27.7c6.6,0,12-5.5,12-12.7a12,12,0,1,0-23.9,0C464.6,401,469.9,406.5,476.5,406.5Z" fill="#fff"/><path d="M501.5,379.3h3l7.7,17.2c.7,1.5,1.4,3.6,1.4,3.6h.1l1.4-3.6,7.7-17.2h3l2.3,29.3h-2.8l-1.7-20.5c-.1-1.6-.1-4.1-.1-4.1h0s-.9,2.6-1.6,4.1L515,403.2h-2.7l-6.9-15.1-1.6-4.2h0s0,2.6-.1,4.2L502,408.6h-2.8Z" fill="#fff"/><path d="M539.2,379.3h3l7.7,17.2c.7,1.5,1.4,3.6,1.4,3.6h.1s.8-2.1,1.5-3.6l7.7-17.2h2.9l2.4,29.3H563l-1.6-20.5a31.9,31.9,0,0,1-.1-4.1h-.1s-.9,2.6-1.5,4.1l-6.9,15.1H550l-6.8-15.1c-.7-1.5-1.6-4.2-1.6-4.2h-.1s0,2.6-.1,4.2l-1.6,20.5h-2.9Z" fill="#fff"/><path d="M588.5,378.8a14.8,14.8,0,0,1,14.9,15,14.9,14.9,0,1,1-29.8,0A14.8,14.8,0,0,1,588.5,378.8Zm0,27.7c6.6,0,11.9-5.5,11.9-12.7a11.9,11.9,0,1,0-23.8,0C576.6,401,581.9,406.5,588.5,406.5Z" fill="#fff"/><path d="M612,379.3h2.8l15,21.1c1,1.5,2.4,4,2.4,4h.1s-.2-2.4-.2-4V379.3H635v29.3h-2.8l-15-21.1c-1-1.5-2.4-4-2.4-4h-.1s.2,2.5.2,4v21.1H612Z" fill="#fff"/><path d="M645.1,403.2a11.7,11.7,0,0,0,7.7,3.2c3.2,0,5.8-1.9,5.8-5.1,0-7.4-14.6-5.5-14.6-14.6,0-4.2,3.7-7.9,9.1-7.9a11.7,11.7,0,0,1,7.9,2.8l-1.5,2.4a9.7,9.7,0,0,0-6.4-2.5c-3.7,0-6.2,2.5-6.2,5.1,0,7,14.7,5,14.7,14.6,0,4.4-3.4,7.9-8.9,7.9a13,13,0,0,1-9.3-3.7Z" fill="#fff"/></g></g></svg>